<svg fill="none" height="50" viewBox="0 0 150 50" width="150" xmlns="http://www.w3.org/2000/svg" xmlns:xlink="http://www.w3.org/1999/xlink"><clipPath id="a"><path d="m0 0h150v50h-150z"/></clipPath><g clip-path="url(#a)"><path d="m138.055.0001625h-126.1032c-.4597 0-.9138 0-1.3722.0025-.3838.0025-.76451.0097625-1.15196.015875-.84171.0098773-1.68145.0837205-2.51191.2208875-.82929.140153-1.6326.404382-2.38277.783755-.74924.38257-1.43385.87969-2.02899 1.47332-.59826.59196-1.09695 1.27618-1.47691 2.02636-.381001.74869-.64519 1.55098-.783441 2.37915-.139564.82713-.214665 1.6638-.2246283 2.5025-.0116326.38325-.01286104.76779-.0189907 1.15109v28.8928c.00612966.3881.0073581.7641.0189907 1.1524.0099664.8386.0850673 1.6753.2246283 2.5024.137869.8286.402074 1.6314.783441 2.3803.37979.7478.87855 1.4292 1.47691 2.0179.59288.5963 1.27793 1.0937 2.02899 1.4734.75016.3804 1.55339.6462 2.38277.7885.8306.1361 1.67025.2099 2.51191.221.38745.0085.76816.0134 1.15196.0134.4584.0025.9126.0025 1.3722.0025h126.1032c.45 0 .908 0 1.359-.0025.382 0 .773-.0049 1.155-.0134.84-.0105 1.678-.0844 2.507-.221.832-.1433 1.639-.4091 2.392-.7885.751-.3799 1.435-.8773 2.027-1.4734.597-.591 1.097-1.2719 1.482-2.0179.378-.7495.64-1.5522.776-2.3803.139-.8272.217-1.6637.232-2.5024.005-.3883.005-.7643.005-1.1524.01-.4541.01-.9057.01-1.3672v-26.1609c0-.4577 0-.9118-.01-1.3647 0-.3833 0-.76784-.005-1.15114-.015-.83877-.093-1.67525-.232-2.5025-.137-.8277-.398-1.62992-.776-2.37915-.774-1.50365-2.001-2.72762-3.509-3.49975-.753-.378438-1.56-.642597-2.392-.783748-.828-.137771-1.667-.2116398-2.507-.2209495-.382-.0061-.773-.013425-1.155-.0158625-.451-.0025-.909-.0025-1.359-.0025z" fill="#a6a6a6"/><path d="m10.5857 48.9062c-.3819 0-.75461-.0048-1.13353-.0133-.78497-.0102-1.56811-.0784-2.34298-.2039-.72254-.1241-1.42248-.3549-2.07674-.6849-.64827-.3272-1.23953-.7563-1.75115-1.2707-.51903-.5084-.95115-1.0981-1.27922-1.7456-.3317-.6518-.56125-1.3504-.68066-2.0715-.12895-.7749-.19872-1.5584-.20871-2.3438-.00795-.2636-.01835-1.1414-.01835-1.1414v-28.8757s.01108-.86424.01841-1.11815c.00956-.78415.07893-1.56643.2075-2.34009.11963-.7231.34936-1.42372.68123-2.07762.32687-.64711.75659-1.23721 1.27249-1.74744.51532-.51507 1.10848-.94634 1.75784-1.27809.65276-.32889 1.35138-.55809 2.07245-.67992.77743-.12679 1.56328-.19534 2.35097-.20508l1.13105-.01526h128.8217l1.144.01588c.781.00924 1.559.07718 2.33.20323.728.12336 1.434.35416 2.094.68482 1.301.66855 2.36 1.72627 3.027 3.02491.327.64938.553 1.34429.671 2.06115.13.78.203 1.56843.218 2.35901.004.354.004.73425.004 1.11265.01.4688.01.9149.01 1.3648v26.1608c0 .4541 0 .8973-.01 1.344 0 .4065 0 .7789-.005 1.1621-.015.7765-.086 1.5509-.214 2.3169-.117.7263-.346 1.4304-.677 2.0875-.331.6405-.76 1.2251-1.273 1.7321-.512.5173-1.105.9488-1.754 1.2782-.659.3324-1.364.5641-2.091.6872-.775.1262-1.558.1944-2.343.2039-.367.0085-.752.0133-1.125.0133l-1.359.0025z" fill="#000"/><g fill="#fff"><path d="m31.048 25.3759c.0135-1.0433.2914-2.0663.8079-2.9737.5165-.9075 1.2547-1.6699 2.1461-2.2164-.5663-.8064-1.3133-1.4701-2.1818-1.9383-.8684-.4682-1.8344-.728-2.8212-.7588-2.1049-.2203-4.1456 1.2561-5.2182 1.2561-1.0934 0-2.7449-1.2342-4.5233-1.1977-1.1503.037-2.2714.3706-3.254.9682s-1.7932 1.4388-2.3528 2.4416c-2.4243 4.1855-.616 10.3369 1.7062 13.7201 1.1619 1.6567 2.5198 3.5073 4.2966 3.4416 1.7387-.0719 2.3881-1.1056 4.4868-1.1056 2.0793 0 2.6885 1.1056 4.5014 1.0639 1.8657-.0302 3.0411-1.664 4.1623-3.3364.8348-1.1805 1.4772-2.4851 1.9033-3.8656-1.0839-.4572-2.0089-1.2224-2.6596-2.2003s-.9984-2.1251-.9997-3.2987z"/><path d="m27.624 15.2637c1.0172-1.2178 1.5184-2.783 1.397-4.3633-1.5541.1628-2.9897.9035-4.0207 2.0745-.5041.5721-.8902 1.2376-1.1362 1.9586s-.347 1.4832-.2974 2.2431c.7773.008 1.5463-.16 2.2491-.4914.7028-.3313 1.3211-.8174 1.8082-1.4215z"/><path d="m53.0262 33.9246h-5.9333l-1.4249 4.1956h-2.5132l5.62-15.5225h2.6111l5.62 15.5225h-2.556zm-5.3188-1.936h4.7031l-2.3185-6.8091h-.0648z"/><path d="m69.1431 32.4623c0 3.5169-1.8876 5.7764-4.7361 5.7764-.7216.0376-1.4393-.1282-2.0708-.4783-.6315-.3502-1.1513-.8706-1.5-1.5017h-.0539v5.6054h-2.3295v-15.061h2.2548v1.8823h.0429c.3647-.628.8933-1.1458 1.5297-1.4981.6363-.3523 1.3565-.526 2.0839-.5026 2.8803 0 4.779 2.2705 4.779 5.7776zm-2.3944 0c0-2.2912-1.1874-3.7976-2.9991-3.7976-1.7799 0-2.9771 1.5381-2.9771 3.7976 0 2.2803 1.1972 3.8074 2.9771 3.8074 1.8117 0 2.9991-1.4954 2.9991-3.8074z"/><path d="m81.6342 32.4623c0 3.5168-1.8877 5.7764-4.7362 5.7764-.7216.0376-1.4392-.1282-2.0707-.4783-.6315-.3502-1.1514-.8706-1.5001-1.5017h-.0539v5.6054h-2.3295v-15.061h2.2548v1.8823h.0429c.3647-.6281.8933-1.1458 1.5297-1.4981.6363-.3523 1.3565-.526 2.0839-.5026 2.8804 0 4.7791 2.2705 4.7791 5.7776zm-2.3944 0c0-2.2913-1.1875-3.7976-2.9992-3.7976-1.7799 0-2.9771 1.5381-2.9771 3.7976 0 2.2803 1.1972 3.8074 2.9771 3.8074 1.8118 0 2.9992-1.4954 2.9992-3.8074z"/><path d="m89.8897 33.7952c.1726 1.5393 1.6722 2.55 3.7214 2.55 1.9635 0 3.3761-1.0107 3.3761-2.3987 0-1.2048-.852-1.9262-2.8693-2.4206l-2.0174-.4846c-2.8583-.6885-4.1853-2.0215-4.1853-4.1846 0-2.6782 2.3405-4.5178 5.664-4.5178 3.2893 0 5.5441 1.8396 5.62 4.5178h-2.3516c-.1407-1.5491-1.4248-2.4841-3.3014-2.4841s-3.1607.946-3.1607 2.323c0 1.0974.8201 1.7431 2.8265 2.2375l1.715.4199c3.1937.7532 4.5207 2.0325 4.5207 4.303 0 2.904-2.3197 4.7229-6.0093 4.7229-3.452 0-5.7828-1.7762-5.9333-4.5838z"/><path d="m104.475 24.125v2.6782h2.158v1.8396h-2.158v6.239c0 .9693.432 1.4209 1.381 1.4209.256-.0044.512-.0224.766-.0537v1.8286c-.426.0795-.86.1155-1.294.1074-2.297 0-3.193-.8606-3.193-3.0554v-6.4868h-1.651v-1.8396h1.651v-2.6782z"/><path d="m107.883 32.4624c0-3.5608 2.103-5.7983 5.383-5.7983 3.29 0 5.383 2.2375 5.383 5.7983 0 3.5706-2.082 5.7983-5.383 5.7983s-5.383-2.2278-5.383-5.7983zm8.393 0c0-2.4426-1.123-3.8843-3.01-3.8843-1.888 0-3.009 1.4527-3.009 3.8843 0 2.4524 1.121 3.8831 3.009 3.8831 1.887 0 3.01-1.4307 3.01-3.8831z"/><path d="m120.57 26.803h2.222v1.9263h.054c.15-.6016.504-1.1333 1.001-1.5057.497-.3723 1.107-.5627 1.729-.539.268-.001.536.0281.798.0867v2.1728c-.339-.1033-.693-.1507-1.047-.1404-.338-.0137-.676.0458-.989.1745-.313.1286-.595.3232-.825.5706-.231.2474-.405.5416-.511.8624s-.141.6607-.102.9963v6.7126h-2.33z"/><path d="m137.114 34.7964c-.313 2.0544-2.32 3.4643-4.887 3.4643-3.301 0-5.35-2.2058-5.35-5.7446 0-3.5498 2.06-5.852 5.253-5.852 3.139 0 5.114 2.1508 5.114 5.5822v.7959h-8.016v.1404c-.037.4165.016.8361.154 1.2309s.359.7558.647 1.059c.289.3031.639.5416 1.028.6995.388.1579.805.2316 1.224.2162.551.0514 1.103-.0757 1.575-.3625.473-.2868.839-.718 1.046-1.2293zm-7.875-3.3777h5.674c.021-.3745-.036-.7493-.167-1.1008s-.334-.6722-.595-.9419c-.262-.2697-.576-.4826-.924-.6254-.348-.1427-.721-.2123-1.097-.2042-.38-.0023-.756.0704-1.107.2138-.351.1435-.67.3548-.939.6218-.268.2671-.481.5845-.626.9341s-.22.7243-.219 1.1026z"/><path d="m47.4155 10.9137c.4883-.0349.9784.0387 1.4348.2155.4565.1767.8678.4523 1.2045.8069.3367.3545.5903.7791.7424 1.2432.1522.4641.1992.9561.1376 1.4405 0 2.3828-1.2914 3.7525-3.5193 3.7525h-2.7017v-7.4586zm-1.54 6.4038h1.4102c.349.0208.6982-.0363 1.0223-.167.3241-.1308.6148-.332.8511-.5889.2363-.257.4121-.5633.5148-.8965.1026-.3333.1294-.6852.0784-1.0301.0473-.3436.0178-.6933-.0864-1.0241s-.2805-.6346-.5162-.8895c-.2358-.2549-.5251-.4547-.8474-.585-.3222-.1303-.6694-.1879-1.0166-.1687h-1.4102z"/><path d="m52.247 15.5557c-.0355-.3699.007-.7431.1246-1.0957s.3079-.6767.5585-.9517.5561-.4947.8969-.645c.3408-.1504.7093-.228 1.0819-.228s.7411.0776 1.0819.228c.3408.1503.6463.37.8969.645s.4409.5991.5585.9517.1601.7258.1246 1.0957c.0361.3703-.0058.744-.1231 1.0972-.1173.3531-.3074.6779-.5581.9534-.2507.2756-.5565.4957-.8976.6464s-.71.2285-1.0831.2285-.742-.0778-1.0831-.2285-.6469-.3708-.8976-.6464c-.2507-.2755-.4408-.6003-.5581-.9534-.1173-.3532-.1592-.7269-.1231-1.0972zm4.178 0c0-1.2201-.5497-1.9336-1.5143-1.9336-.9683 0-1.513.7135-1.513 1.9336 0 1.2299.5448 1.9379 1.513 1.9379.9647 0 1.5143-.7129 1.5143-1.9379z"/><path d="m64.6476 18.3723h-1.1556l-1.1666-4.1455h-.0881l-1.1617 4.1455h-1.1446l-1.5559-5.6286h1.1299l1.0111 4.295h.0833l1.1605-4.295h1.0686l1.1605 4.295h.0881l1.0063-4.295h1.1139z"/><path d="m67.5059 12.7436h1.0723v.8941h.0832c.1413-.3211.3794-.5903.6814-.7701.3019-.1797.6525-.2611 1.003-.2327.2747-.0206.5505.0207.8069.1209.2565.1001.4871.2565.6747.4575.1876.2011.3275.4416.4092.7039.0818.2623.1033.5395.0629.8112v3.6438h-1.1139v-3.3648c0-.9046-.3942-1.3544-1.218-1.3544-.1865-.0086-.3726.023-.5457.0928-.173.0698-.3289.1761-.4569.3115-.128.1355-.2252.297-.2847.4734-.0596.1764-.0802.3636-.0605.5487v3.2928h-1.1139z"/><path d="m74.0746 10.5464h1.1139v7.8259h-1.1139z"/><path d="m76.737 15.5553c-.0355-.3699.007-.7431.1246-1.0957.1177-.3526.308-.6768.5586-.9518.2507-.275.5562-.4947.897-.645.3408-.1504.7093-.228 1.082-.228.3726 0 .7412.0776 1.0819.228.3408.1503.6464.37.897.645.2507.275.4409.5992.5586.9518.1176.3526.1601.7258.1246 1.0957.0362.3703-.0058.7441-.1232 1.0972-.1173.3532-.3075.6779-.5582.9535-.2507.2755-.5565.4956-.8976.6463-.3411.1506-.71.2285-1.0831.2285s-.7421-.0779-1.0832-.2285c-.3411-.1507-.6469-.3708-.8976-.6463-.2507-.2756-.4408-.6003-.5582-.9535-.1174-.3531-.1593-.7269-.1232-1.0972zm4.1779 0c0-1.22-.5496-1.9335-1.5142-1.9335-.9683 0-1.513.7135-1.513 1.9336 0 1.2298.5447 1.9378 1.513 1.9378.9646 0 1.5142-.7129 1.5142-1.9379z"/><path d="m83.2341 16.7808c0-1.0132.7565-1.5973 2.0994-1.6803l1.529-.0879v-.4859c0-.5945-.3942-.9301-1.1556-.9301-.6219 0-1.0528.2276-1.1764.6256h-1.0785c.1139-.9668 1.0259-1.5869 2.3063-1.5869 1.4151 0 2.2132.7025 2.2132 1.8914v3.8459h-1.0723v-.7911h-.0882c-.1789.2838-.4301.5151-.7279.6704-.2979.1552-.6317.2289-.9675.2134-.2369.0246-.4764-.0006-.703-.074s-.4353-.1933-.6125-.352c-.1773-.1587-.3192-.3527-.4167-.5695-.0975-.2167-.1483-.4515-.1493-.689zm3.6284-.481v-.4706l-1.3784.0879c-.7773.0519-1.1299.3156-1.1299.8118 0 .5066.4407.8014 1.0467.8014.1775.0179.3569 0 .5274-.0526s.3286-.1389.4649-.2537c.1364-.1148.2482-.2558.3288-.4146.0806-.1587.1284-.3321.1405-.5096z"/><path d="m89.4355 15.5556c0-1.7786.9169-2.9053 2.343-2.9053.3528-.0162.7029.068 1.0094.2429s.5568.4331.7216.7446h.0832v-3.0914h1.1139v7.8259h-1.0674v-.8893h-.0881c-.1775.3094-.4365.5644-.749.7375-.3124.1731-.6664.2577-1.0236.2446-1.4359 0-2.343-1.1267-2.343-2.9095zm1.1508 0c0 1.1938.5643 1.9122 1.5081 1.9122.9389 0 1.5191-.7288 1.5191-1.9074 0-1.1731-.5863-1.9122-1.5191-1.9122-.9377 0-1.5082.7233-1.5082 1.9074z"/><path d="m99.3154 15.5557c-.0354-.3699.007-.7431.1246-1.0957.1177-.3526.3079-.6767.5585-.9517.2505-.275.5565-.4947.8965-.645.341-.1504.71-.228 1.082-.228.373 0 .741.0776 1.082.228.341.1503.646.37.897.645s.441.5991.559.9517c.117.3526.16.7258.124 1.0957.036.3703-.006.744-.123 1.0972-.117.3531-.307.6779-.558.9534-.251.2756-.556.4957-.898.6464-.341.1507-.71.2285-1.083.2285s-.742-.0778-1.083-.2285-.647-.3708-.8973-.6464c-.2507-.2755-.4409-.6003-.5582-.9534-.1173-.3532-.1592-.7269-.1231-1.0972zm4.1776 0c0-1.2201-.549-1.9336-1.514-1.9336-.968 0-1.513.7135-1.513 1.9336 0 1.2299.545 1.9379 1.513 1.9379.965 0 1.514-.7129 1.514-1.9379z"/><path d="m106.134 12.7436h1.072v.8941h.084c.141-.3211.379-.5903.681-.7701.302-.1797.652-.2611 1.003-.2327.275-.0206.55.0207.807.1209.256.1001.487.2565.674.4575.188.2011.328.4416.41.7039.081.2623.103.5395.063.8112v3.6438h-1.114v-3.3648c0-.9046-.395-1.3544-1.218-1.3544-.187-.0086-.373.023-.546.0928s-.329.1761-.457.3115c-.128.1355-.225.297-.285.4734-.059.1764-.08.3636-.06.5487v3.2928h-1.114z"/><path d="m117.222 11.3423v1.427h1.223v.9357h-1.223v2.8942c0 .5896.244.8478.798.8478.142-.0004.284-.009.425-.0256v.9253c-.2.0357-.403.0546-.606.0567-1.239 0-1.732-.4345-1.732-1.5197v-3.1788h-.896v-.9357h.896v-1.4269z"/><path d="m119.967 10.5464h1.104v3.1018h.088c.148-.3242.393-.5949.701-.7753.308-.1805.664-.2618 1.02-.233.273-.0148.546.0307.8.1332.253.1026.481.2597.667.4601.185.2004.324.4392.407.6994.082.2602.106.5353.07.8057v3.634h-1.115v-3.36c0-.899-.42-1.3544-1.207-1.3544-.192-.0156-.384.0106-.564.077-.181.0663-.344.1711-.48.307-.135.1359-.239.2997-.304.4798-.065.1802-.09.3724-.073.5632v3.2874h-1.114z"/><path d="m131.319 16.8524c-.151.5144-.479.9594-.926 1.2571s-.985.4291-1.52.3713c-.371.0098-.741-.0612-1.083-.2082-.341-.1469-.647-.3661-.895-.6426-.248-.2764-.433-.6033-.541-.9581-.109-.3548-.139-.7289-.088-1.0964-.05-.3686-.019-.7435.089-1.0993.109-.3559.293-.6843.539-.9632.247-.2788.551-.5015.892-.653.34-.1515.71-.2283 1.083-.2251 1.57 0 2.518 1.07 2.518 2.8375v.3876h-3.986v.0622c-.018.2066.008.4145.076.6104.068.196.176.3756.318.5274.141.1518.313.2725.504.3542.191.0818.397.1228.605.1205.266.0319.536-.0159.776-.1374.239-.1215.436-.3112.567-.545zm-3.918-1.814h2.851c.014-.1889-.012-.3786-.076-.557s-.164-.3415-.295-.4789c-.131-.1373-.289-.2458-.465-.3185-.175-.0727-.364-.108-.554-.1037-.192-.0024-.384.0337-.562.1061s-.341.1797-.477.3156-.244.2976-.316.4756c-.073.178-.109.3687-.106.5608z"/></g></g></svg>